<?xml version="1.0" standalone="no"?>
<!DOCTYPE svg PUBLIC "-//W3C//DTD SVG 20010904//EN"
 "http://www.w3.org/TR/2001/REC-SVG-20010904/DTD/svg10.dtd">
<svg version="1.0" xmlns="http://www.w3.org/2000/svg"
 width="500.000000pt" height="500.000000pt" viewBox="0 0 500.000000 500.000000"
 preserveAspectRatio="xMidYMid meet">

<g transform="translate(0.000000,500.000000) scale(0.100000,-0.100000)"
fill="#000000" stroke="none">
<path d="M2352 3688 c-307 -38 -577 -187 -742 -408 -150 -203 -223 -428 -237
-731 -17 -387 83 -698 297 -923 155 -162 332 -254 585 -303 114 -22 428 -24
560 -4 372 56 632 242 742 531 49 129 57 120 -106 120 l-139 0 -6 -26 c-15
-59 -74 -161 -124 -215 -66 -72 -127 -111 -228 -148 -123 -44 -208 -56 -409
-55 -212 1 -285 16 -430 89 -258 129 -410 372 -445 706 -29 287 8 537 111 748
44 90 63 117 138 191 71 72 102 95 181 133 154 76 222 90 440 90 214 0 286
-14 429 -84 215 -106 348 -337 368 -640 l6 -99 -786 0 c-581 0 -788 -3 -793
-11 -13 -21 -17 -292 -5 -366 46 -297 211 -501 476 -590 77 -26 88 -27 300
-28 248 0 294 8 424 72 78 37 188 136 224 201 l18 32 -99 0 -98 0 -45 -42
c-89 -85 -226 -128 -412 -128 -351 0 -570 206 -602 568 l-6 72 852 0 852 0 -6
178 c-11 327 -69 527 -206 709 -185 245 -504 377 -903 372 -57 -1 -136 -6
-176 -11z"/>
</g>
</svg>
